G04*
G04 #@! TF.GenerationSoftware,Altium Limited,CircuitStudio,1.5.1 (13)*
G04*
G04 Layer_Color=2752767*
%FSLAX25Y25*%
%MOIN*%
G70*
G01*
G75*
%ADD50C,0.00500*%
D50*
X10205Y5874D02*
Y9874D01*
X14205D01*
Y5874D01*
X10205D01*
X13748D02*
Y9874D01*
X17748D01*
Y5874D01*
X13748D01*
X27921Y10205D02*
Y14205D01*
X31921D01*
Y10205D01*
X27921D01*
X33349Y22469D02*
Y26469D01*
X37349D01*
Y22469D01*
X33349D01*
X25563Y7838D02*
Y11838D01*
X29563D01*
Y7838D01*
X25563D01*
X22803Y9811D02*
Y13811D01*
X26803D01*
Y9811D01*
X22803D01*
X35795Y22410D02*
Y26409D01*
X39795D01*
Y22410D01*
X35795D01*
X34614Y48000D02*
Y52000D01*
X38614D01*
Y48000D01*
X34614D01*
X6661Y49575D02*
Y53575D01*
X10661D01*
Y49575D01*
X6661D01*
X11386Y22409D02*
Y26409D01*
X15386D01*
Y22409D01*
X11386D01*
X15323Y20835D02*
Y24835D01*
X19323D01*
Y20835D01*
X15323D01*
X16110Y28709D02*
Y32709D01*
X20110D01*
Y28709D01*
X16110D01*
Y32646D02*
Y36646D01*
X20110D01*
Y32646D01*
X16110D01*
Y36189D02*
Y40189D01*
X20110D01*
Y36189D01*
X16110D01*
Y40126D02*
Y44126D01*
X20110D01*
Y40126D01*
X16110D01*
Y43276D02*
Y47276D01*
X20110D01*
Y43276D01*
X16110D01*
X12961Y46425D02*
Y50425D01*
X16961D01*
Y46425D01*
X12961D01*
X9811D02*
Y50425D01*
X13811D01*
Y46425D01*
X9811D01*
X7055D02*
Y50425D01*
X11055D01*
Y46425D01*
X7055D01*
X4299Y45244D02*
Y49244D01*
X8299D01*
Y45244D01*
X4299D01*
X35795Y29102D02*
Y33102D01*
X39795D01*
Y29102D01*
X35795D01*
Y26346D02*
Y30346D01*
X39795D01*
Y26346D01*
X35795D01*
X32252Y43276D02*
Y47276D01*
X36252D01*
Y43276D01*
X32252D01*
X34614D02*
Y47276D01*
X38614D01*
Y43276D01*
X34614D01*
X6465Y53512D02*
Y57512D01*
X10465D01*
Y53512D01*
X6465D01*
X16110Y-32D02*
Y3968D01*
X20110D01*
Y-32D01*
X16110D01*
X1150Y8236D02*
Y12236D01*
X5150D01*
Y8236D01*
X1150D01*
X3118Y10205D02*
Y14205D01*
X7118D01*
Y10205D01*
X3118D01*
X16898Y5874D02*
Y9874D01*
X20898D01*
Y5874D01*
X16898D01*
X19654D02*
Y9874D01*
X23653D01*
Y5874D01*
X19654D01*
X21228Y14929D02*
Y18929D01*
X25228D01*
Y14929D01*
X21228D01*
X2331Y47606D02*
Y51606D01*
X6331D01*
Y47606D01*
X2331D01*
X26740Y48394D02*
Y52394D01*
X30740D01*
Y48394D01*
X26740D01*
X19654Y756D02*
Y4756D01*
X23653D01*
Y756D01*
X19654D01*
X24378Y41701D02*
Y45701D01*
X28378D01*
Y41701D01*
X24378D01*
X32055Y3906D02*
Y7905D01*
X36055D01*
Y3906D01*
X32055D01*
X30677Y756D02*
Y4756D01*
X34677D01*
Y756D01*
X30677D01*
X32252Y8236D02*
Y12236D01*
X36252D01*
Y8236D01*
X32252D01*
X32646Y14142D02*
Y18142D01*
X36646D01*
Y14142D01*
X32646D01*
X17291Y48394D02*
Y52394D01*
X21291D01*
Y48394D01*
X17291D01*
X19510Y23314D02*
Y27314D01*
X23510D01*
Y23314D01*
X19510D01*
X20441Y18472D02*
Y22472D01*
X24441D01*
Y18472D01*
X20441D01*
X17685Y21622D02*
Y25622D01*
X21685D01*
Y21622D01*
X17685D01*
X5480Y11779D02*
Y15779D01*
X9480D01*
Y11779D01*
X5480D01*
X6268Y14339D02*
Y18339D01*
X10268D01*
Y14339D01*
X6268D01*
X5480Y21622D02*
Y25622D01*
X9480D01*
Y21622D01*
X5480D01*
X6268Y17685D02*
Y21685D01*
X10268D01*
Y17685D01*
X6268D01*
X-425Y25559D02*
Y29559D01*
X3575D01*
Y25559D01*
X-425D01*
M02*
