G04*
G04 #@! TF.GenerationSoftware,Altium Limited,CircuitStudio,1.5.1 (13)*
G04*
G04 Layer_Physical_Order=1*
G04 Layer_Color=11767835*
%FSLAX25Y25*%
%MOIN*%
G70*
G01*
G75*
%ADD10C,0.01063*%
%ADD11R,0.06299X0.03150*%
%ADD12R,0.02559X0.03150*%
%ADD13C,0.00866*%
%ADD14R,0.01083X0.00984*%
%ADD15R,0.00984X0.01083*%
%ADD16R,0.01772X0.01969*%
G04:AMPARAMS|DCode=17|XSize=39.37mil|YSize=51.18mil|CornerRadius=9.84mil|HoleSize=0mil|Usage=FLASHONLY|Rotation=90.000|XOffset=0mil|YOffset=0mil|HoleType=Round|Shape=RoundedRectangle|*
%AMROUNDEDRECTD17*
21,1,0.03937,0.03150,0,0,90.0*
21,1,0.01969,0.05118,0,0,90.0*
1,1,0.01969,0.01575,0.00984*
1,1,0.01969,0.01575,-0.00984*
1,1,0.01969,-0.01575,-0.00984*
1,1,0.01969,-0.01575,0.00984*
%
%ADD17ROUNDEDRECTD17*%
%ADD18R,0.02717X0.02835*%
%ADD19R,0.02047X0.02047*%
%ADD20R,0.01378X0.01969*%
%ADD21C,0.00787*%
%ADD22R,0.05906X0.07874*%
%ADD23R,0.02047X0.02047*%
%ADD24R,0.01969X0.01772*%
%ADD25C,0.00591*%
%ADD26C,0.00984*%
%ADD27C,0.00787*%
%ADD28C,0.01000*%
%ADD29C,0.01969*%
G36*
X41732Y58916D02*
X41510Y-146D01*
X7011D01*
X6890Y0D01*
X6890Y50D01*
Y1561D01*
X8057D01*
Y1252D01*
X8018Y1193D01*
X7957Y886D01*
X8018Y579D01*
X8192Y318D01*
X8452Y144D01*
X8760Y83D01*
X9067Y144D01*
X9328Y318D01*
X9501Y579D01*
X9563Y886D01*
X9501Y1193D01*
X9462Y1252D01*
Y1531D01*
X9659Y1636D01*
X9831Y1522D01*
X10138Y1461D01*
X13543D01*
Y551D01*
X16378D01*
Y1461D01*
X16806D01*
X16812Y1431D01*
X17117Y975D01*
X17573Y671D01*
X18110Y564D01*
X18648Y671D01*
X19104Y975D01*
X19408Y1431D01*
X19515Y1969D01*
X19408Y2506D01*
X19104Y2962D01*
X18648Y3266D01*
X18110Y3373D01*
X17573Y3266D01*
X17273Y3067D01*
X16378D01*
Y3386D01*
X13543D01*
Y3067D01*
X10138D01*
X9831Y3005D01*
X9659Y2891D01*
X9462Y2996D01*
Y3701D01*
X10079D01*
Y6536D01*
X7244D01*
Y3701D01*
X8057D01*
Y2966D01*
X6890D01*
Y8661D01*
X3305D01*
X3285Y8858D01*
X3687Y8938D01*
X4143Y9243D01*
X4448Y9699D01*
X4474Y9829D01*
X8551D01*
X8820Y9883D01*
X9048Y10035D01*
X9674Y10661D01*
X9908Y10616D01*
X10034Y10428D01*
X10307Y10245D01*
X10630Y10181D01*
X10952Y10245D01*
X11226Y10428D01*
X11299Y10537D01*
X11320Y10542D01*
X11502Y10487D01*
Y9062D01*
X11211Y8867D01*
X10907Y8412D01*
X10800Y7874D01*
X10907Y7336D01*
X11211Y6881D01*
X11667Y6576D01*
X12205Y6469D01*
X12742Y6576D01*
X13198Y6881D01*
X13503Y7336D01*
X13610Y7874D01*
X13503Y8412D01*
X13198Y8867D01*
X12907Y9062D01*
Y10487D01*
X13089Y10542D01*
X13110Y10537D01*
X13183Y10428D01*
X13457Y10245D01*
X13779Y10181D01*
X14102Y10245D01*
X14376Y10428D01*
X14448Y10537D01*
X14470Y10542D01*
X14652Y10487D01*
Y8714D01*
X14450Y8412D01*
X14343Y7874D01*
X14450Y7336D01*
X14755Y6881D01*
X15210Y6576D01*
X15748Y6469D01*
X16286Y6576D01*
X16741Y6881D01*
X17046Y7336D01*
X17153Y7874D01*
X17046Y8412D01*
X16953Y8551D01*
X17106Y8677D01*
X17310Y8472D01*
X17318Y8460D01*
X17561Y8217D01*
X17493Y7874D01*
X17600Y7336D01*
X17904Y6881D01*
X18360Y6576D01*
X18898Y6469D01*
X19435Y6576D01*
X19891Y6881D01*
X20166Y7292D01*
X20229Y7307D01*
X20322D01*
X20385Y7292D01*
X20660Y6881D01*
X21116Y6576D01*
X21654Y6469D01*
X22191Y6576D01*
X22647Y6881D01*
X22952Y7336D01*
X23058Y7874D01*
X22952Y8412D01*
X22844Y8573D01*
X22937Y8746D01*
X26717D01*
X27025Y8540D01*
X27563Y8433D01*
X28101Y8540D01*
X28556Y8845D01*
X28861Y9301D01*
X28968Y9838D01*
X28861Y10376D01*
X28556Y10832D01*
X28101Y11136D01*
X27563Y11243D01*
X27025Y11136D01*
X26570Y10832D01*
X26265Y10376D01*
X26220Y10151D01*
X22796D01*
X21427Y11520D01*
X21199Y11673D01*
X21066Y11699D01*
X21084Y11896D01*
X21353Y11949D01*
X21581Y12102D01*
X23725Y14246D01*
X23877Y14474D01*
X23931Y14743D01*
Y15741D01*
X24222Y15936D01*
X24526Y16391D01*
X24633Y16929D01*
X24526Y17467D01*
X24222Y17923D01*
X23766Y18227D01*
X23228Y18334D01*
X22691Y18227D01*
X22431Y18054D01*
X22258Y18146D01*
Y18949D01*
X22410Y19074D01*
X22441Y19068D01*
X22979Y19174D01*
X23434Y19479D01*
X23739Y19935D01*
X23846Y20472D01*
X23739Y21010D01*
X23434Y21466D01*
X22979Y21770D01*
X22441Y21877D01*
X22392Y21868D01*
X22212Y22033D01*
Y24126D01*
X22503Y24320D01*
X22808Y24776D01*
X22915Y25314D01*
X22808Y25851D01*
X22503Y26307D01*
X22047Y26612D01*
X21510Y26719D01*
X20972Y26612D01*
X20516Y26307D01*
X20464Y26229D01*
X20276Y26286D01*
Y27435D01*
X23854D01*
X24016Y27403D01*
X24377Y27475D01*
X24683Y27679D01*
X24887Y27985D01*
X24959Y28346D01*
X24887Y28707D01*
X24683Y29013D01*
X24377Y29218D01*
X24016Y29290D01*
X23854Y29258D01*
X20276D01*
Y29370D01*
X16772D01*
Y25748D01*
X20036D01*
X20161Y25596D01*
X20105Y25314D01*
X20212Y24776D01*
X20516Y24320D01*
X20807Y24126D01*
Y22198D01*
X20271Y21662D01*
X20263Y21650D01*
X19891Y21278D01*
X19756Y21251D01*
X19483Y21068D01*
X19300Y20795D01*
X19236Y20472D01*
X19300Y20150D01*
X19376Y20036D01*
Y19334D01*
X19300Y19220D01*
X19236Y18898D01*
X19300Y18575D01*
X19483Y18302D01*
X19592Y18229D01*
Y17992D01*
X19483Y17919D01*
X19300Y17645D01*
X19236Y17323D01*
X19300Y17000D01*
X19483Y16727D01*
X19756Y16544D01*
X20079Y16480D01*
X20401Y16544D01*
X20656Y16714D01*
X20853Y16666D01*
Y15153D01*
X20575Y14876D01*
X20516D01*
X20401Y14952D01*
X20079Y15016D01*
X19756Y14952D01*
X19483Y14769D01*
X19300Y14496D01*
X19236Y14173D01*
X19300Y13851D01*
X19483Y13577D01*
X19592Y13504D01*
Y13267D01*
X19483Y13194D01*
X19410Y13085D01*
X19173D01*
X19100Y13194D01*
X18826Y13377D01*
X18504Y13441D01*
X18181Y13377D01*
X17908Y13194D01*
X17835Y13085D01*
X17814Y13080D01*
X17631Y13135D01*
Y13736D01*
X17708Y13851D01*
X17772Y14173D01*
X17708Y14496D01*
X17525Y14769D01*
X17252Y14952D01*
X16929Y15016D01*
X16607Y14952D01*
X16333Y14769D01*
X16260Y14660D01*
X16023D01*
X15950Y14769D01*
X15677Y14952D01*
X15354Y15016D01*
X15032Y14952D01*
X14758Y14769D01*
X14685Y14660D01*
X14448D01*
X14376Y14769D01*
X14102Y14952D01*
X13779Y15016D01*
X13457Y14952D01*
X13183Y14769D01*
X13110Y14660D01*
X13089Y14655D01*
X12907Y14710D01*
Y15311D01*
X12983Y15425D01*
X13048Y15748D01*
X12983Y16071D01*
X12801Y16344D01*
X12691Y16417D01*
Y16654D01*
X12801Y16727D01*
X12874Y16836D01*
X13110D01*
X13183Y16727D01*
X13457Y16544D01*
X13779Y16480D01*
X14102Y16544D01*
X14376Y16727D01*
X14448Y16836D01*
X14685D01*
X14758Y16727D01*
X15032Y16544D01*
X15354Y16480D01*
X15677Y16544D01*
X15950Y16727D01*
X16023Y16836D01*
X16260D01*
X16333Y16727D01*
X16607Y16544D01*
X16929Y16480D01*
X17252Y16544D01*
X17525Y16727D01*
X17708Y17000D01*
X17772Y17323D01*
X17708Y17645D01*
X17525Y17919D01*
X17416Y17992D01*
Y18229D01*
X17525Y18302D01*
X17708Y18575D01*
X17772Y18898D01*
X17708Y19220D01*
X17525Y19494D01*
X17416Y19567D01*
Y19803D01*
X17525Y19876D01*
X17708Y20150D01*
X17772Y20472D01*
X17708Y20795D01*
X17631Y20909D01*
Y21491D01*
X17861Y21537D01*
X18316Y21841D01*
X18621Y22297D01*
X18728Y22835D01*
X18621Y23372D01*
X18316Y23828D01*
X17861Y24133D01*
X17323Y24239D01*
X16785Y24133D01*
X16329Y23828D01*
X16025Y23372D01*
X15918Y22835D01*
X16025Y22297D01*
X16227Y21995D01*
Y21415D01*
X16030Y21396D01*
X16003Y21529D01*
X15851Y21757D01*
X14362Y23245D01*
X14379Y23416D01*
X14684Y23872D01*
X14791Y24409D01*
X14684Y24947D01*
X14379Y25403D01*
X14157Y25551D01*
X14217Y25748D01*
X16299D01*
Y29370D01*
X12795D01*
Y28470D01*
X10827D01*
Y29370D01*
X8615D01*
X7864Y30122D01*
X7897Y30334D01*
X8021Y30436D01*
X8071Y30448D01*
X8137Y30381D01*
X8333Y30251D01*
X8563Y30205D01*
X16339D01*
X16569Y30251D01*
X16764Y30381D01*
X16895Y30577D01*
X16941Y30807D01*
Y46457D01*
X16895Y46687D01*
X16764Y46883D01*
X16646Y46961D01*
X16567Y47079D01*
X16372Y47210D01*
X16142Y47256D01*
X8071D01*
X7840Y47210D01*
X7645Y47079D01*
X7515Y46884D01*
X7469Y46654D01*
Y43122D01*
X689D01*
X459Y43076D01*
X263Y42945D01*
X197Y42846D01*
X0Y42906D01*
Y59055D01*
X41593D01*
X41732Y58916D01*
D02*
G37*
G36*
X263Y34220D02*
X459Y34089D01*
X689Y34043D01*
X4528D01*
Y30315D01*
X5313D01*
X5359Y30084D01*
X5556Y29789D01*
X6119Y29226D01*
X6310Y29099D01*
X7323Y28086D01*
Y25998D01*
X6018D01*
X5959Y26037D01*
X5652Y26098D01*
X5345Y26037D01*
X5084Y25863D01*
X4426Y25205D01*
X4331Y25224D01*
X1181D01*
X643Y25117D01*
X197Y24818D01*
X106Y24837D01*
X0Y24869D01*
Y34260D01*
X197Y34319D01*
X263Y34220D01*
D02*
G37*
G36*
X9673Y19905D02*
X9933Y19731D01*
X10240Y19670D01*
X10334Y19688D01*
X10630Y19629D01*
X10952Y19694D01*
X11226Y19876D01*
X11299Y19985D01*
X11320Y19991D01*
X11502Y19936D01*
Y19334D01*
X11426Y19220D01*
X11362Y18898D01*
X11426Y18575D01*
X11609Y18302D01*
X11718Y18229D01*
X11723Y18207D01*
X11668Y18025D01*
X11067D01*
X10952Y18102D01*
X10630Y18166D01*
X10307Y18102D01*
X10193Y18025D01*
X9055D01*
X8786Y17972D01*
X8558Y17819D01*
X8447Y17708D01*
X8268Y17743D01*
X7730Y17637D01*
X7274Y17332D01*
X6970Y16876D01*
X6863Y16339D01*
X6970Y15801D01*
X7274Y15345D01*
X7275Y15344D01*
X7234Y15135D01*
X6943Y15078D01*
X6487Y14773D01*
X6182Y14317D01*
X6075Y13780D01*
X6149Y13410D01*
X5972Y13292D01*
X5656Y13503D01*
X5118Y13610D01*
X4580Y13503D01*
X4125Y13198D01*
X3820Y12742D01*
X3713Y12205D01*
X3817Y11684D01*
X3751Y11603D01*
X3670Y11538D01*
X3150Y11641D01*
X2612Y11534D01*
X2156Y11230D01*
X1852Y10774D01*
X1745Y10236D01*
X1852Y9699D01*
X2156Y9243D01*
X2612Y8938D01*
X3014Y8858D01*
X2994Y8661D01*
X197D01*
Y50D01*
X197Y0D01*
X190Y-8D01*
X111Y-11D01*
X-78Y179D01*
X0Y1969D01*
Y14694D01*
X105Y14726D01*
X197Y14744D01*
X643Y14446D01*
X1181Y14339D01*
X4331D01*
X4868Y14446D01*
X5324Y14751D01*
X5629Y15206D01*
X5736Y15744D01*
Y17713D01*
X5629Y18250D01*
X5460Y18502D01*
X7809Y20851D01*
X8727D01*
X9673Y19905D01*
D02*
G37*
%LPC*%
G36*
X37096Y57789D02*
X32185D01*
X31916Y57736D01*
X31688Y57583D01*
X29420Y55315D01*
X28740D01*
X26471Y57583D01*
X26243Y57736D01*
X25975Y57789D01*
X10039D01*
X9771Y57736D01*
X9543Y57583D01*
X8808Y56849D01*
X8465Y56917D01*
X7927Y56810D01*
X7471Y56505D01*
X7277Y56214D01*
X6890D01*
Y56791D01*
X1378D01*
Y54232D01*
X2053D01*
Y53248D01*
X1378D01*
Y50689D01*
X2053D01*
Y50394D01*
X2107Y50125D01*
X2259Y49897D01*
X3019Y49137D01*
X3033Y49069D01*
X3337Y48613D01*
X3793Y48308D01*
X4331Y48201D01*
X4868Y48308D01*
X5324Y48613D01*
X5629Y49069D01*
X5736Y49606D01*
X5629Y50144D01*
X5396Y50492D01*
X5501Y50689D01*
X6890D01*
Y50872D01*
X7474D01*
X7668Y50581D01*
X8124Y50277D01*
X8661Y50170D01*
X9199Y50277D01*
X9655Y50581D01*
X9959Y51037D01*
X10066Y51575D01*
X9959Y52113D01*
X9816Y52327D01*
X12594Y55105D01*
X22835D01*
Y52559D01*
X23215D01*
Y50576D01*
X21654Y49016D01*
X20875D01*
X20367Y49524D01*
X20589Y49856D01*
X20696Y50394D01*
X20589Y50931D01*
X20285Y51387D01*
X19829Y51692D01*
X19291Y51799D01*
X19286Y51797D01*
X19134Y51922D01*
Y54173D01*
X16299D01*
Y51338D01*
X17014D01*
Y51181D01*
X17067Y50912D01*
X17220Y50684D01*
X17980Y49924D01*
X17993Y49856D01*
X18298Y49400D01*
X18754Y49096D01*
X18822Y49082D01*
X20276Y47629D01*
Y46260D01*
X22441D01*
Y47815D01*
X23917Y49292D01*
X25394Y47815D01*
Y46260D01*
X27559D01*
Y46935D01*
X27953D01*
Y46260D01*
X30118D01*
Y46738D01*
X31876D01*
Y43405D01*
X31930Y43137D01*
X32047Y42961D01*
Y41102D01*
X34882D01*
Y41817D01*
X35197D01*
Y41102D01*
X38032D01*
Y43937D01*
X37445D01*
X37386Y44134D01*
X37608Y44282D01*
X37912Y44738D01*
X38019Y45276D01*
X37912Y45813D01*
X37614Y46260D01*
X37632Y46350D01*
X37665Y46457D01*
X37697D01*
Y46554D01*
X37894Y46555D01*
X37894Y46555D01*
X37894Y46555D01*
X39764D01*
Y47343D01*
X41048Y48627D01*
X41200Y48855D01*
X41254Y49124D01*
Y53632D01*
X41200Y53901D01*
X41048Y54128D01*
X37593Y57583D01*
X37365Y57736D01*
X37096Y57789D01*
D02*
G37*
G36*
X24016Y25353D02*
X23655Y25281D01*
X23349Y25076D01*
X23144Y24770D01*
X23072Y24409D01*
X23144Y24048D01*
X23349Y23742D01*
X23655Y23538D01*
X24016Y23466D01*
X24377Y23538D01*
X24683Y23742D01*
X24887Y24048D01*
X24959Y24409D01*
X24887Y24770D01*
X24683Y25076D01*
X24377Y25281D01*
X24016Y25353D01*
D02*
G37*
G36*
X39764Y20499D02*
X36614D01*
X36077Y20392D01*
X35621Y20088D01*
X35316Y19632D01*
X35209Y19094D01*
Y17983D01*
X34752Y17526D01*
X34646Y17547D01*
X34108Y17440D01*
X33652Y17135D01*
X33348Y16679D01*
X33241Y16142D01*
X33348Y15604D01*
X33652Y15148D01*
X34108Y14844D01*
X34646Y14737D01*
X35183Y14844D01*
X35394Y14984D01*
X35535Y14842D01*
X35316Y14514D01*
X35209Y13976D01*
Y12471D01*
X34358Y11620D01*
X34252Y11641D01*
X33714Y11534D01*
X33259Y11230D01*
X32954Y10774D01*
X32847Y10236D01*
X32954Y9699D01*
X33259Y9243D01*
X33714Y8938D01*
X34252Y8831D01*
X34790Y8938D01*
X35060Y9119D01*
X35238Y9001D01*
X35209Y8858D01*
Y7746D01*
X34637Y7174D01*
X34593Y7203D01*
X34055Y7310D01*
X33517Y7203D01*
X33062Y6899D01*
X32757Y6443D01*
X32650Y5906D01*
X32757Y5368D01*
X33062Y4912D01*
X33517Y4608D01*
X34055Y4501D01*
X34593Y4608D01*
X35048Y4912D01*
X35288Y5271D01*
X35796Y5779D01*
X36077Y5592D01*
X36614Y5485D01*
X39764D01*
X40301Y5592D01*
X40757Y5896D01*
X41062Y6352D01*
X41169Y6890D01*
Y8858D01*
X41062Y9396D01*
X40757Y9852D01*
X40301Y10156D01*
X39764Y10263D01*
X36614D01*
X36077Y10156D01*
X35806Y9975D01*
X35629Y10094D01*
X35657Y10236D01*
X35636Y10343D01*
X36032Y10739D01*
X36077Y10710D01*
X36614Y10603D01*
X39764D01*
X40301Y10710D01*
X40757Y11014D01*
X41062Y11470D01*
X41169Y12008D01*
Y13976D01*
X41062Y14514D01*
X40757Y14970D01*
X40301Y15274D01*
X39764Y15381D01*
X36614D01*
X36077Y15274D01*
X35866Y15134D01*
X35724Y15276D01*
X35944Y15604D01*
X35960Y15687D01*
X36161Y15811D01*
X36614Y15721D01*
X39764D01*
X40301Y15828D01*
X40757Y16132D01*
X41062Y16588D01*
X41169Y17126D01*
Y19094D01*
X41062Y19632D01*
X40757Y20088D01*
X40301Y20392D01*
X39764Y20499D01*
D02*
G37*
G36*
X28189Y16772D02*
X25354D01*
Y13937D01*
X25679D01*
X25754Y13755D01*
X25146Y13148D01*
X24803Y13216D01*
X24265Y13109D01*
X23810Y12804D01*
X23505Y12349D01*
X23398Y11811D01*
X23505Y11273D01*
X23810Y10818D01*
X24265Y10513D01*
X24803Y10406D01*
X25341Y10513D01*
X25797Y10818D01*
X26101Y11273D01*
X26208Y11811D01*
X26140Y12154D01*
X27268Y13283D01*
X27421Y13511D01*
X27474Y13780D01*
Y13937D01*
X28189D01*
Y16772D01*
D02*
G37*
G36*
X31594Y19685D02*
X29035D01*
Y16929D01*
X31581D01*
Y14858D01*
X30264Y13541D01*
X29921Y13610D01*
X29384Y13503D01*
X28928Y13198D01*
X28623Y12742D01*
X28516Y12205D01*
X28623Y11667D01*
X28928Y11211D01*
X29384Y10907D01*
X29921Y10800D01*
X30459Y10907D01*
X30915Y11211D01*
X31219Y11667D01*
X31326Y12205D01*
X31258Y12548D01*
X32780Y14070D01*
X32932Y14298D01*
X32986Y14567D01*
Y17332D01*
X32932Y17601D01*
X32780Y17829D01*
X31805Y18804D01*
X31594Y18945D01*
Y19685D01*
D02*
G37*
G36*
X39764Y5145D02*
X36614D01*
X36077Y5038D01*
X35621Y4734D01*
X35316Y4278D01*
X35209Y3740D01*
Y3659D01*
X33731D01*
X33671Y3749D01*
X33215Y4054D01*
X32677Y4161D01*
X32140Y4054D01*
X31684Y3749D01*
X31379Y3294D01*
X31272Y2756D01*
X31379Y2218D01*
X31684Y1763D01*
X32140Y1458D01*
X32677Y1351D01*
X33215Y1458D01*
X33671Y1763D01*
X33731Y1853D01*
X35209D01*
Y1772D01*
X35316Y1234D01*
X35621Y778D01*
X36077Y474D01*
X36614Y367D01*
X39764D01*
X40301Y474D01*
X40757Y778D01*
X41062Y1234D01*
X41169Y1772D01*
Y3740D01*
X41062Y4278D01*
X40757Y4734D01*
X40301Y5038D01*
X39764Y5145D01*
D02*
G37*
G36*
X39764Y33227D02*
X39403Y33155D01*
X39097Y32950D01*
X38892Y32644D01*
X38825Y32308D01*
X38735Y32243D01*
X38637Y32197D01*
X38333Y32400D01*
X37795Y32507D01*
X37258Y32400D01*
X36802Y32096D01*
X36497Y31640D01*
X36423Y31266D01*
X36204Y31176D01*
X36188Y31187D01*
X35827Y31258D01*
X35466Y31187D01*
X35160Y30982D01*
X34955Y30676D01*
X34883Y30315D01*
X34955Y29954D01*
X35160Y29648D01*
X35466Y29443D01*
X35528Y29431D01*
Y29230D01*
X35466Y29218D01*
X35160Y29013D01*
X34955Y28707D01*
X34943Y28645D01*
X34742D01*
X34730Y28707D01*
X34525Y29013D01*
X34219Y29218D01*
X33858Y29290D01*
X33497Y29218D01*
X33191Y29013D01*
X32987Y28707D01*
X32915Y28346D01*
X32987Y27985D01*
X33191Y27679D01*
X33497Y27475D01*
X33559Y27463D01*
Y27262D01*
X33497Y27250D01*
X33191Y27045D01*
X32987Y26739D01*
X32974Y26677D01*
X32774D01*
X32761Y26739D01*
X32557Y27045D01*
X32251Y27250D01*
X31890Y27321D01*
X31529Y27250D01*
X31223Y27045D01*
X31018Y26739D01*
X31006Y26676D01*
X30805D01*
X30793Y26739D01*
X30588Y27045D01*
X30282Y27250D01*
X30220Y27262D01*
Y27463D01*
X30282Y27475D01*
X30588Y27679D01*
X30793Y27985D01*
X30865Y28346D01*
X30793Y28707D01*
X30588Y29013D01*
X30282Y29218D01*
X29921Y29290D01*
X29560Y29218D01*
X29254Y29013D01*
X29050Y28707D01*
X29037Y28645D01*
X28837D01*
X28824Y28707D01*
X28620Y29013D01*
X28314Y29218D01*
X28251Y29230D01*
Y29431D01*
X28314Y29443D01*
X28620Y29648D01*
X28824Y29954D01*
X28896Y30315D01*
X28824Y30676D01*
X28620Y30982D01*
X28314Y31187D01*
X28252Y31199D01*
Y31400D01*
X28314Y31412D01*
X28620Y31616D01*
X28824Y31922D01*
X28896Y32283D01*
X28824Y32644D01*
X28620Y32950D01*
X28314Y33155D01*
X27953Y33227D01*
X27592Y33155D01*
X27286Y32950D01*
X27081Y32644D01*
X27009Y32283D01*
X27081Y31922D01*
X27286Y31616D01*
X27592Y31412D01*
X27654Y31400D01*
Y31199D01*
X27592Y31187D01*
X27286Y30982D01*
X27081Y30676D01*
X27009Y30315D01*
X27081Y29954D01*
X27286Y29648D01*
X27592Y29443D01*
X27654Y29431D01*
Y29230D01*
X27592Y29218D01*
X27286Y29013D01*
X27081Y28707D01*
X27022Y28409D01*
X26177Y27564D01*
X26177Y27564D01*
X26177Y27564D01*
X26134Y27500D01*
X26025Y27337D01*
X26025Y27337D01*
X26025Y27337D01*
X25994Y27182D01*
X25971Y27068D01*
X25971Y27068D01*
X25971Y27068D01*
Y25931D01*
X26025Y25662D01*
X26177Y25434D01*
X27640Y23972D01*
X27867Y23820D01*
X28136Y23766D01*
X34161D01*
X34356Y23475D01*
X34811Y23171D01*
X34982Y23137D01*
X35057Y22955D01*
X34955Y22802D01*
X34943Y22739D01*
X34742D01*
X34730Y22802D01*
X34525Y23108D01*
X34219Y23313D01*
X33858Y23384D01*
X33497Y23313D01*
X33191Y23108D01*
X32987Y22802D01*
X32974Y22740D01*
X32774D01*
X32761Y22802D01*
X32557Y23108D01*
X32251Y23313D01*
X31890Y23384D01*
X31529Y23313D01*
X31223Y23108D01*
X31018Y22802D01*
X31006Y22739D01*
X30805D01*
X30793Y22802D01*
X30588Y23108D01*
X30282Y23313D01*
X29921Y23384D01*
X29560Y23313D01*
X29254Y23108D01*
X29050Y22802D01*
X29037Y22740D01*
X28837D01*
X28824Y22802D01*
X28620Y23108D01*
X28314Y23313D01*
X27953Y23384D01*
X27592Y23313D01*
X27286Y23108D01*
X27081Y22802D01*
X27069Y22739D01*
X26868D01*
X26856Y22802D01*
X26651Y23108D01*
X26345Y23313D01*
X25984Y23384D01*
X25623Y23313D01*
X25317Y23108D01*
X25113Y22802D01*
X25041Y22441D01*
X25113Y22080D01*
X25317Y21774D01*
X25623Y21569D01*
X25984Y21498D01*
X26345Y21569D01*
X26651Y21774D01*
X26856Y22080D01*
X26868Y22142D01*
X27069D01*
X27081Y22080D01*
X27286Y21774D01*
X27592Y21569D01*
X27953Y21498D01*
X28314Y21569D01*
X28620Y21774D01*
X28824Y22080D01*
X28837Y22142D01*
X29037D01*
X29050Y22080D01*
X29254Y21774D01*
X29560Y21569D01*
X29921Y21498D01*
X30282Y21569D01*
X30588Y21774D01*
X30793Y22080D01*
X30805Y22142D01*
X31006D01*
X31018Y22080D01*
X31223Y21774D01*
X31529Y21569D01*
X31890Y21498D01*
X32251Y21569D01*
X32557Y21774D01*
X32761Y22080D01*
X32774Y22142D01*
X32974D01*
X32987Y22080D01*
X33191Y21774D01*
X33497Y21569D01*
X33858Y21498D01*
X34219Y21569D01*
X34525Y21774D01*
X34730Y22080D01*
X34742Y22142D01*
X34943D01*
X34955Y22080D01*
X35160Y21774D01*
X35466Y21569D01*
X35827Y21498D01*
X36188Y21569D01*
X36494Y21774D01*
X36698Y22080D01*
X36711Y22142D01*
X36911D01*
X36924Y22080D01*
X37128Y21774D01*
X37434Y21569D01*
X37795Y21498D01*
X38156Y21569D01*
X38462Y21774D01*
X38667Y22080D01*
X38679Y22142D01*
X38880D01*
X38892Y22080D01*
X39097Y21774D01*
X39403Y21569D01*
X39764Y21498D01*
X40125Y21569D01*
X40431Y21774D01*
X40635Y22080D01*
X40707Y22441D01*
X40635Y22802D01*
X40466Y23055D01*
Y23795D01*
X40635Y24048D01*
X40707Y24409D01*
X40635Y24770D01*
X40431Y25076D01*
X40125Y25281D01*
X39764Y25353D01*
X39403Y25281D01*
X39150Y25112D01*
X38983D01*
X38789Y25403D01*
X38333Y25708D01*
X37795Y25814D01*
X37258Y25708D01*
X36802Y25403D01*
X36690Y25236D01*
X36493D01*
X36342Y25462D01*
X35887Y25767D01*
X35349Y25874D01*
X34811Y25767D01*
X34789Y25752D01*
X34648Y25894D01*
X34730Y26017D01*
X34802Y26378D01*
X34730Y26739D01*
X34525Y27045D01*
X34219Y27250D01*
X34157Y27262D01*
Y27463D01*
X34219Y27475D01*
X34525Y27679D01*
X34730Y27985D01*
X34742Y28048D01*
X34943D01*
X34955Y27985D01*
X35160Y27679D01*
X35466Y27475D01*
X35827Y27403D01*
X36188Y27475D01*
X36494Y27679D01*
X36584D01*
X36802Y27353D01*
X37258Y27048D01*
X37795Y26941D01*
X38333Y27048D01*
X38789Y27353D01*
X38983Y27644D01*
X39150D01*
X39403Y27475D01*
X39764Y27403D01*
X40125Y27475D01*
X40431Y27679D01*
X40635Y27985D01*
X40707Y28346D01*
X40635Y28707D01*
X40431Y29013D01*
X40125Y29218D01*
X40062Y29230D01*
Y29431D01*
X40125Y29443D01*
X40431Y29648D01*
X40635Y29954D01*
X40707Y30315D01*
X40635Y30676D01*
X40431Y30982D01*
X40125Y31187D01*
X40063Y31199D01*
Y31400D01*
X40125Y31412D01*
X40431Y31616D01*
X40635Y31922D01*
X40707Y32283D01*
X40635Y32644D01*
X40431Y32950D01*
X40125Y33155D01*
X39764Y33227D01*
D02*
G37*
G36*
Y37164D02*
X39403Y37092D01*
X39097Y36887D01*
X38892Y36581D01*
X38820Y36220D01*
X38892Y35859D01*
X39097Y35553D01*
X39403Y35349D01*
X39764Y35277D01*
X40125Y35349D01*
X40431Y35553D01*
X40635Y35859D01*
X40707Y36220D01*
X40635Y36581D01*
X40431Y36887D01*
X40125Y37092D01*
X39764Y37164D01*
D02*
G37*
G36*
X33858Y33227D02*
X33497Y33155D01*
X33191Y32950D01*
X32987Y32644D01*
X32915Y32283D01*
X32987Y31922D01*
X33191Y31616D01*
X33497Y31412D01*
X33858Y31340D01*
X34219Y31412D01*
X34525Y31616D01*
X34730Y31922D01*
X34802Y32283D01*
X34730Y32644D01*
X34525Y32950D01*
X34219Y33155D01*
X33858Y33227D01*
D02*
G37*
G36*
X37795Y39132D02*
X37434Y39061D01*
X37128Y38856D01*
X36924Y38550D01*
X36911Y38488D01*
X36711D01*
X36698Y38550D01*
X36494Y38856D01*
X36188Y39061D01*
X35827Y39132D01*
X35466Y39061D01*
X35160Y38856D01*
X34955Y38550D01*
X34943Y38487D01*
X34742D01*
X34730Y38550D01*
X34525Y38856D01*
X34219Y39061D01*
X33858Y39132D01*
X33497Y39061D01*
X33191Y38856D01*
X32987Y38550D01*
X32974Y38488D01*
X32774D01*
X32761Y38550D01*
X32557Y38856D01*
X32251Y39061D01*
X31890Y39132D01*
X31529Y39061D01*
X31223Y38856D01*
X31018Y38550D01*
X30946Y38189D01*
X31018Y37828D01*
X31223Y37522D01*
X31529Y37317D01*
X31890Y37246D01*
X32251Y37317D01*
X32557Y37522D01*
X32761Y37828D01*
X32774Y37890D01*
X32974D01*
X32987Y37828D01*
X33191Y37522D01*
X33497Y37317D01*
X33858Y37246D01*
X34219Y37317D01*
X34525Y37522D01*
X34730Y37828D01*
X34742Y37890D01*
X34943D01*
X34955Y37828D01*
X35160Y37522D01*
X35466Y37317D01*
X35827Y37246D01*
X36188Y37317D01*
X36494Y37522D01*
X36698Y37828D01*
X36711Y37890D01*
X36911D01*
X36924Y37828D01*
X37128Y37522D01*
X37434Y37317D01*
X37795Y37246D01*
X38156Y37317D01*
X38462Y37522D01*
X38667Y37828D01*
X38739Y38189D01*
X38667Y38550D01*
X38462Y38856D01*
X38156Y39061D01*
X37795Y39132D01*
D02*
G37*
G36*
X24016Y33227D02*
X23655Y33155D01*
X23349Y32950D01*
X23144Y32644D01*
X23072Y32283D01*
X23144Y31922D01*
X23349Y31616D01*
X23655Y31412D01*
X24016Y31340D01*
X24377Y31412D01*
X24683Y31616D01*
X24887Y31922D01*
X24959Y32283D01*
X24887Y32644D01*
X24683Y32950D01*
X24377Y33155D01*
X24016Y33227D01*
D02*
G37*
%LPD*%
G36*
X37894Y53328D02*
Y52461D01*
X39536D01*
X39593Y52362D01*
X39536Y52264D01*
X37894D01*
Y50904D01*
X37705Y50847D01*
X37608Y50994D01*
X37152Y51298D01*
X36614Y51405D01*
X36077Y51298D01*
X35621Y50994D01*
X35316Y50538D01*
X35232Y50112D01*
X33760D01*
Y50295D01*
X31890D01*
Y48524D01*
X32122D01*
Y48327D01*
X31890D01*
Y48144D01*
X30118D01*
Y49016D01*
X27953D01*
Y48340D01*
X27559D01*
Y49016D01*
X26180D01*
X24620Y50576D01*
Y52559D01*
X25000D01*
Y55105D01*
X25394D01*
Y52559D01*
X26772D01*
X27564Y51767D01*
X27792Y51615D01*
X28061Y51561D01*
X30010D01*
X30279Y51615D01*
X30507Y51767D01*
X32091Y53352D01*
X32243Y53580D01*
X32297Y53848D01*
Y54138D01*
X33362Y55203D01*
X36018D01*
X37894Y53328D01*
D02*
G37*
D10*
X24016Y38189D02*
D03*
Y36220D02*
D03*
Y34252D02*
D03*
Y32283D02*
D03*
Y22441D02*
D03*
Y30315D02*
D03*
Y28346D02*
D03*
Y26378D02*
D03*
Y24409D02*
D03*
X25984Y22441D02*
D03*
X27953D02*
D03*
X29921D02*
D03*
X31890D02*
D03*
X33858D02*
D03*
X35827D02*
D03*
X37795D02*
D03*
X39764D02*
D03*
Y24409D02*
D03*
Y26378D02*
D03*
Y28346D02*
D03*
Y30315D02*
D03*
Y32283D02*
D03*
Y34252D02*
D03*
Y36220D02*
D03*
Y38189D02*
D03*
X37795D02*
D03*
X35827D02*
D03*
X33858D02*
D03*
X31890D02*
D03*
X29921D02*
D03*
X27953D02*
D03*
X25984D02*
D03*
X27953Y34252D02*
D03*
Y32283D02*
D03*
Y30315D02*
D03*
Y28346D02*
D03*
Y26378D02*
D03*
X29921D02*
D03*
X31890D02*
D03*
X29921Y28346D02*
D03*
Y32283D02*
D03*
X33858Y26378D02*
D03*
Y28346D02*
D03*
X35827Y26378D02*
D03*
Y28346D02*
D03*
Y30315D02*
D03*
Y32283D02*
D03*
Y34252D02*
D03*
X33858D02*
D03*
Y32283D02*
D03*
X31890Y34252D02*
D03*
D11*
X4331Y44882D02*
D03*
D12*
X2461Y32283D02*
D03*
X6201D02*
D03*
D13*
X20079Y11024D02*
D03*
X18504D02*
D03*
X16929D02*
D03*
X15354D02*
D03*
X13779D02*
D03*
X12205D02*
D03*
X10630D02*
D03*
X20079Y12598D02*
D03*
X18504D02*
D03*
X16929D02*
D03*
X15354D02*
D03*
X13779D02*
D03*
X12205D02*
D03*
X10630D02*
D03*
X20079Y14173D02*
D03*
X18504D02*
D03*
X16929D02*
D03*
X15354D02*
D03*
X13779D02*
D03*
X12205D02*
D03*
X10630D02*
D03*
X20079Y15748D02*
D03*
X18504D02*
D03*
X16929D02*
D03*
X15354D02*
D03*
X13779D02*
D03*
X12205D02*
D03*
X10630D02*
D03*
X20079Y17323D02*
D03*
X18504D02*
D03*
X16929D02*
D03*
X15354D02*
D03*
X13779D02*
D03*
X12205D02*
D03*
X10630D02*
D03*
X20079Y18898D02*
D03*
X18504D02*
D03*
X16929D02*
D03*
X15354D02*
D03*
X13779D02*
D03*
X12205D02*
D03*
X10630D02*
D03*
X20079Y20472D02*
D03*
X18504D02*
D03*
X16929D02*
D03*
X15354D02*
D03*
X13779D02*
D03*
X12205D02*
D03*
X10630D02*
D03*
D14*
X38829Y47441D02*
D03*
Y49409D02*
D03*
Y51378D02*
D03*
Y53346D02*
D03*
X32825D02*
D03*
Y51378D02*
D03*
Y49409D02*
D03*
Y47441D02*
D03*
D15*
X36811Y53396D02*
D03*
X34843D02*
D03*
Y47392D02*
D03*
X36811D02*
D03*
D16*
X30315Y15551D02*
D03*
Y18307D02*
D03*
D17*
X38189Y12992D02*
D03*
X2756Y22835D02*
D03*
X2756Y16728D02*
D03*
X38189Y2756D02*
D03*
Y7874D02*
D03*
Y18110D02*
D03*
D18*
X9075Y27559D02*
D03*
X5098D02*
D03*
X14547D02*
D03*
X18524D02*
D03*
D19*
X39764Y42520D02*
D03*
X36614D02*
D03*
X11811Y5118D02*
D03*
X8661D02*
D03*
X14567Y52756D02*
D03*
X17717D02*
D03*
X30315Y42520D02*
D03*
X33465D02*
D03*
D20*
X29035Y47638D02*
D03*
X26476D02*
D03*
X23917D02*
D03*
X21358D02*
D03*
X29035Y53937D02*
D03*
X26476D02*
D03*
X23917D02*
D03*
X21358D02*
D03*
D21*
X8760Y2264D02*
D03*
X10138D02*
D03*
X8760Y886D02*
D03*
X10138D02*
D03*
D22*
X27165Y4331D02*
D03*
X3543D02*
D03*
X27165D02*
D03*
D23*
X14961Y5118D02*
D03*
Y1969D02*
D03*
X26772Y15354D02*
D03*
Y18504D02*
D03*
D24*
X5512Y51968D02*
D03*
X2756D02*
D03*
X5512Y55512D02*
D03*
X2756D02*
D03*
D25*
X28136Y24469D02*
X35349D01*
X26674Y25931D02*
Y27068D01*
Y25931D02*
X28136Y24469D01*
X3543Y21654D02*
Y23187D01*
X9067Y23622D02*
X10642Y22047D01*
X13779Y20472D02*
Y20484D01*
X10240Y20472D02*
X10630D01*
X12205Y7874D02*
X12598Y8268D01*
X15354Y8268D02*
Y11024D01*
Y8268D02*
X15748Y7874D01*
X29921Y12205D02*
X32283Y14567D01*
X10618Y14173D02*
X10630D01*
X12205D01*
Y15748D01*
X35827Y22441D02*
X37795Y24409D01*
X34449Y45473D02*
Y47392D01*
X22505Y9449D02*
X27174D01*
X27563Y9838D01*
X24803Y11811D02*
X26772Y13780D01*
X36418Y45472D02*
Y47392D01*
X8268Y18898D02*
X8268Y18898D01*
X8307Y13425D02*
X9508Y14626D01*
Y14638D01*
X10618Y15748D01*
X7835Y13425D02*
X8307D01*
X16929Y20472D02*
Y23228D01*
X37795Y24409D02*
X37795Y24409D01*
X38829Y53346D02*
Y53386D01*
X36309Y55905D02*
X38829Y53386D01*
X33071Y55905D02*
X36309D01*
X31594Y54429D02*
X33071Y55905D01*
X31594Y53848D02*
Y54429D01*
X30010Y52264D02*
X31594Y53848D01*
X37096Y57087D02*
X40551Y53632D01*
X32185Y57087D02*
X37096D01*
X29035Y53937D02*
X32185Y57087D01*
X28061Y52264D02*
X30010D01*
X26476Y53848D02*
X28061Y52264D01*
X26476Y53848D02*
Y53937D01*
X40551Y49124D02*
Y53632D01*
X38868Y47441D02*
X40551Y49124D01*
X38829Y47441D02*
X38868D01*
X26476Y53937D02*
Y55020D01*
X25689Y55807D02*
X26476Y55020D01*
X12303Y55807D02*
X25689D01*
X25975Y57087D02*
X29035Y54026D01*
X10039Y57087D02*
X25975D01*
X8465Y55512D02*
X10039Y57087D01*
X8661Y52165D02*
X12303Y55807D01*
X29035Y53937D02*
Y54026D01*
X32283Y14567D02*
Y17332D01*
X31308Y18307D02*
X32283Y17332D01*
X30315Y18307D02*
X31308D01*
X26674Y27068D02*
X27953Y28346D01*
X20079Y14173D02*
X20866D01*
X21555Y14862D01*
Y19587D01*
X22441Y20472D01*
X23228Y14743D02*
Y16929D01*
X21084Y12598D02*
X23228Y14743D01*
X20079Y12598D02*
X21084D01*
X19626Y9902D02*
X21654Y7874D01*
X19614Y9902D02*
X19626D01*
X18957Y10559D02*
X19614Y9902D01*
X18957Y10559D02*
Y10571D01*
X18504Y11024D02*
X18957Y10571D01*
X18504Y11024D02*
X18504D01*
X20930D02*
X22505Y9449D01*
X20079Y11024D02*
X20930D01*
X17815Y8957D02*
X18898Y7874D01*
X17815Y8957D02*
Y8961D01*
X16929Y9847D02*
X17815Y8961D01*
X16929Y9847D02*
Y11024D01*
X13386Y23228D02*
Y24409D01*
Y23228D02*
X15354Y21260D01*
X10618Y15748D02*
X10630D01*
X5905Y51575D02*
X8661D01*
X5512Y51968D02*
X5905Y51575D01*
X8661D02*
Y52165D01*
X13779Y15748D02*
X15354D01*
X13779Y18898D02*
Y20472D01*
X10531Y20571D02*
X10630Y20472D01*
X3150Y15748D02*
X3150Y15748D01*
X18504Y21256D02*
X19685Y22437D01*
X18504Y20472D02*
Y21256D01*
X10642Y22047D02*
X10642Y22047D01*
X12205Y18898D02*
Y20472D01*
X15354Y15748D02*
X16929D01*
X18504D01*
Y14173D02*
Y15748D01*
Y17323D01*
Y15748D02*
X20079D01*
X18504Y17323D02*
Y18898D01*
Y20472D01*
X10630Y17323D02*
X12205D01*
X15354Y11024D02*
Y12598D01*
Y14173D01*
X37795Y31102D02*
X38583Y30315D01*
X39764D01*
X16929Y11024D02*
Y12598D01*
Y14173D01*
X37795Y28346D02*
X39764D01*
X34252Y45276D02*
X34449Y45473D01*
X36418Y45472D02*
X36614Y45276D01*
X5512Y55512D02*
X8465D01*
X15354Y20472D02*
Y21260D01*
X20079Y18898D02*
Y20472D01*
X10630Y12598D02*
X12205D01*
X10642Y22047D02*
X11752Y20937D01*
Y20925D02*
Y20937D01*
Y20925D02*
X12205Y20472D01*
X10618Y12598D02*
X10630D01*
X8268Y18898D02*
X10630D01*
X27953Y34252D02*
X29921Y32284D01*
X24016Y34252D02*
Y36220D01*
Y22441D02*
X25478Y23903D01*
Y24916D01*
X24016Y26378D02*
X25478Y24916D01*
X39764Y34009D02*
Y34252D01*
Y34009D02*
X40984Y32789D01*
Y31738D02*
Y32789D01*
X40945Y31699D02*
X40984Y31738D01*
X40945Y30860D02*
Y31699D01*
Y30860D02*
X40984Y30821D01*
Y27801D02*
Y30821D01*
X39764Y26581D02*
X40984Y27801D01*
X39764Y26378D02*
Y26581D01*
X35827Y26378D02*
X39764D01*
X35827Y32283D02*
Y34252D01*
X5610Y2264D02*
X8760D01*
Y886D02*
Y2264D01*
Y5020D01*
X17815Y2264D02*
X18110Y1969D01*
X3150Y10236D02*
X3445Y10531D01*
X12205Y8662D02*
Y11024D01*
Y8662D02*
X12598Y8268D01*
X26772Y13780D02*
Y15354D01*
X35827Y22441D02*
Y22441D01*
X37795Y24409D02*
X39764D01*
Y22441D02*
Y24409D01*
X24016Y22441D02*
X24508Y21949D01*
Y20768D02*
Y21949D01*
Y20768D02*
X26772Y18504D01*
X11811Y5118D02*
X14961D01*
X38829Y49409D02*
Y51378D01*
X32825Y47441D02*
Y49409D01*
X29232Y47441D02*
X32825D01*
X29035Y47638D02*
X29232Y47441D01*
X26476Y47638D02*
X29035D01*
X2756Y51968D02*
Y55512D01*
Y50394D02*
Y51968D01*
Y50394D02*
X3543Y49606D01*
X4331D01*
X21358Y53937D02*
Y54468D01*
X14695Y52756D02*
X16408Y54468D01*
X14567Y52756D02*
X14695D01*
X16408Y54468D02*
X21358D01*
X23917Y50285D02*
Y53937D01*
Y50285D02*
X26476Y47726D01*
Y47638D02*
Y47726D01*
X21358Y47726D02*
X23917Y50285D01*
X17717Y51181D02*
Y52756D01*
X34843Y53396D02*
X36811D01*
X32874D02*
X34843D01*
X32825Y53346D02*
X32874Y53396D01*
X32825Y51378D02*
Y53346D01*
Y49409D02*
X38829D01*
X32579Y47195D02*
X32825Y47441D01*
X32579Y43405D02*
Y47195D01*
Y43405D02*
X33465Y42520D01*
X36614D01*
X21654Y2756D02*
X25591D01*
X19291Y49606D02*
X21171Y47726D01*
X17717Y51181D02*
X18504Y50394D01*
X19291D01*
Y49606D02*
Y50394D01*
X19685Y22437D02*
Y23622D01*
X21510Y21907D02*
Y25314D01*
X20079Y20472D02*
X20079D01*
X20768Y21161D01*
Y21166D01*
X21510Y21907D01*
X8969Y25295D02*
X13779Y20484D01*
X2362Y27559D02*
X6279D01*
X3445Y10531D02*
X8551D01*
X10618Y12598D01*
X5217Y12106D02*
X8551D01*
X10618Y14173D01*
X7480Y13780D02*
X7835Y13425D01*
X8268Y16339D02*
Y16535D01*
X5652Y25295D02*
X8969D01*
X7480Y23622D02*
X9067D01*
X8268Y16535D02*
X9055Y17323D01*
X10630D01*
X8268Y18898D02*
Y19685D01*
X1575Y27559D02*
Y31398D01*
X2461Y32283D01*
D26*
X36614Y12598D02*
X37795D01*
X34252Y10236D02*
X36614Y12598D01*
X34252Y10236D02*
Y10236D01*
X34646Y5906D02*
X36614Y7874D01*
X32677Y2756D02*
X36614D01*
X34646Y16142D02*
X36614Y18110D01*
D27*
X10138Y2264D02*
X17815D01*
X34055Y5906D02*
X34646D01*
X36614Y18110D02*
X38189D01*
X3543Y23187D02*
X5652Y25295D01*
X2653Y16831D02*
X7476Y21654D01*
X9059D01*
X10240Y20472D01*
D28*
X19311Y28346D02*
X24016D01*
X10256Y27559D02*
X14547D01*
X6201Y30433D02*
Y32283D01*
Y30433D02*
X6764Y29870D01*
X6827D01*
X9075Y27622D01*
X-53937Y71352D02*
X-49938D01*
X-51938D01*
Y65354D01*
X-46939D02*
X-44940D01*
X-43940Y66354D01*
Y68353D01*
X-44940Y69353D01*
X-46939D01*
X-47939Y68353D01*
Y66354D01*
X-46939Y65354D01*
X-41941Y63355D02*
Y69353D01*
X-38942D01*
X-37942Y68353D01*
Y66354D01*
X-38942Y65354D01*
X-41941D01*
X-29945Y71352D02*
Y65354D01*
X-25946D01*
X-22947Y69353D02*
X-20948D01*
X-19948Y68353D01*
Y65354D01*
X-22947D01*
X-23947Y66354D01*
X-22947Y67354D01*
X-19948D01*
X-17949Y69353D02*
Y66354D01*
X-16949Y65354D01*
X-13950D01*
Y64355D01*
X-14950Y63355D01*
X-15949D01*
X-13950Y65354D02*
Y69353D01*
X-8952Y65354D02*
X-10951D01*
X-11951Y66354D01*
Y68353D01*
X-10951Y69353D01*
X-8952D01*
X-7952Y68353D01*
Y67354D01*
X-11951D01*
X-5953Y69353D02*
Y65354D01*
Y67354D01*
X-4953Y68353D01*
X-3953Y69353D01*
X-2953D01*
X6044Y68353D02*
X10042D01*
X18040Y69353D02*
Y65354D01*
Y67354D01*
X19039Y68353D01*
X20039Y69353D01*
X21039D01*
X27037Y65354D02*
X25038D01*
X24038Y66354D01*
Y68353D01*
X25038Y69353D01*
X27037D01*
X28036Y68353D01*
Y67354D01*
X24038D01*
X31036Y69353D02*
X33035D01*
X34034Y68353D01*
Y65354D01*
X31036D01*
X30036Y66354D01*
X31036Y67354D01*
X34034D01*
X40033Y71352D02*
Y65354D01*
X37034D01*
X36034Y66354D01*
Y68353D01*
X37034Y69353D01*
X40033D01*
X43032D02*
X45031D01*
X46031Y68353D01*
Y65354D01*
X43032D01*
X42032Y66354D01*
X43032Y67354D01*
X46031D01*
X48030Y71352D02*
Y65354D01*
X51029D01*
X52029Y66354D01*
Y67354D01*
Y68353D01*
X51029Y69353D01*
X48030D01*
X54028Y65354D02*
X56027D01*
X55028D01*
Y71352D01*
X54028D01*
X62025Y65354D02*
X60026D01*
X59026Y66354D01*
Y68353D01*
X60026Y69353D01*
X62025D01*
X63025Y68353D01*
Y67354D01*
X59026D01*
X72022Y65354D02*
Y70353D01*
Y68353D01*
X71023D01*
X73022D01*
X72022D01*
Y70353D01*
X73022Y71352D01*
X76021Y69353D02*
Y65354D01*
Y67354D01*
X77021Y68353D01*
X78020Y69353D01*
X79020D01*
X83019Y65354D02*
X85018D01*
X86018Y66354D01*
Y68353D01*
X85018Y69353D01*
X83019D01*
X82019Y68353D01*
Y66354D01*
X83019Y65354D01*
X88017D02*
Y69353D01*
X89017D01*
X90016Y68353D01*
Y65354D01*
Y68353D01*
X91016Y69353D01*
X92016Y68353D01*
Y65354D01*
X101013Y70353D02*
Y69353D01*
X100013D01*
X102013D01*
X101013D01*
Y66354D01*
X102013Y65354D01*
X106011D02*
X108011D01*
X109010Y66354D01*
Y68353D01*
X108011Y69353D01*
X106011D01*
X105012Y68353D01*
Y66354D01*
X106011Y65354D01*
X111010Y63355D02*
Y69353D01*
X114009D01*
X115008Y68353D01*
Y66354D01*
X114009Y65354D01*
X111010D01*
D29*
X12205Y7874D02*
D03*
X15748D02*
D03*
X29921Y12205D02*
D03*
X35349Y24469D02*
D03*
X27563Y9838D02*
D03*
X24803Y11811D02*
D03*
X37795Y24409D02*
D03*
X36614Y50000D02*
D03*
X8661Y51575D02*
D03*
X13386Y24409D02*
D03*
X17323Y22835D02*
D03*
X18110Y30709D02*
D03*
Y34646D02*
D03*
Y38189D02*
D03*
Y42126D02*
D03*
Y45276D02*
D03*
X14961Y48425D02*
D03*
X11811D02*
D03*
X9055D02*
D03*
X6299Y47244D02*
D03*
X37795Y31102D02*
D03*
Y28346D02*
D03*
X34252Y45276D02*
D03*
X36614D02*
D03*
X8465Y55512D02*
D03*
X18110Y1969D02*
D03*
X3150Y10236D02*
D03*
X5118Y12205D02*
D03*
X18898Y7874D02*
D03*
X21654D02*
D03*
X23228Y16929D02*
D03*
X4331Y49606D02*
D03*
X28740Y50394D02*
D03*
X21654Y2756D02*
D03*
X26378Y43701D02*
D03*
X34055Y5906D02*
D03*
X32677Y2756D02*
D03*
X34252Y10236D02*
D03*
X34646Y16142D02*
D03*
X19291Y50394D02*
D03*
X21510Y25314D02*
D03*
X22441Y20472D02*
D03*
X19685Y23622D02*
D03*
X7480Y13780D02*
D03*
X8268Y16339D02*
D03*
X7480Y23622D02*
D03*
X8268Y19685D02*
D03*
X1575Y27559D02*
D03*
M02*
