G04*
G04 #@! TF.GenerationSoftware,Altium Limited,CircuitStudio,1.5.1 (13)*
G04*
G04 Layer_Color=128*
%FSLAX25Y25*%
%MOIN*%
G70*
G01*
G75*
%ADD50C,0.00500*%
D50*
X11811Y7874D02*
X12598D01*
X12205Y7480D02*
Y8268D01*
X15354Y7874D02*
X16142D01*
X15748Y7480D02*
Y8268D01*
X29528Y12205D02*
X30315D01*
X29921Y11811D02*
Y12598D01*
X34955Y24469D02*
X35743D01*
X35349Y24075D02*
Y24862D01*
X27169Y9838D02*
X27957D01*
X27563Y9445D02*
Y10232D01*
X24409Y11811D02*
X25197D01*
X24803Y11417D02*
Y12205D01*
X37402Y24409D02*
X38189D01*
X37795Y24016D02*
Y24803D01*
X36220Y50000D02*
X37008D01*
X36614Y49606D02*
Y50394D01*
X8268Y51575D02*
X9055D01*
X8661Y51181D02*
Y51968D01*
X12992Y24409D02*
X13780D01*
X13386Y24016D02*
Y24803D01*
X16929Y22835D02*
X17717D01*
X17323Y22441D02*
Y23228D01*
X17717Y30709D02*
X18504D01*
X18110Y30315D02*
Y31102D01*
X17717Y34646D02*
X18504D01*
X18110Y34252D02*
Y35039D01*
X17717Y38189D02*
X18504D01*
X18110Y37795D02*
Y38583D01*
X17717Y42126D02*
X18504D01*
X18110Y41732D02*
Y42520D01*
X17717Y45276D02*
X18504D01*
X18110Y44882D02*
Y45669D01*
X14567Y48425D02*
X15354D01*
X14961Y48031D02*
Y48819D01*
X11417Y48425D02*
X12205D01*
X11811Y48031D02*
Y48819D01*
X8661Y48425D02*
X9449D01*
X9055Y48031D02*
Y48819D01*
X5906Y47244D02*
X6693D01*
X6299Y46850D02*
Y47638D01*
X37402Y31102D02*
X38189D01*
X37795Y30709D02*
Y31496D01*
X37402Y28346D02*
X38189D01*
X37795Y27953D02*
Y28740D01*
X33858Y45276D02*
X34646D01*
X34252Y44882D02*
Y45669D01*
X36220Y45276D02*
X37008D01*
X36614Y44882D02*
Y45669D01*
X8071Y55512D02*
X8858D01*
X8465Y55118D02*
Y55905D01*
X17717Y1969D02*
X18504D01*
X18110Y1575D02*
Y2362D01*
X2756Y10236D02*
X3543D01*
X3150Y9843D02*
Y10630D01*
X4724Y12205D02*
X5512D01*
X5118Y11811D02*
Y12598D01*
X18504Y7874D02*
X19291D01*
X18898Y7480D02*
Y8268D01*
X21260Y7874D02*
X22047D01*
X21654Y7480D02*
Y8268D01*
X22835Y16929D02*
X23622D01*
X23228Y16535D02*
Y17323D01*
X3937Y49606D02*
X4724D01*
X4331Y49213D02*
Y50000D01*
X28346Y50394D02*
X29134D01*
X28740Y50000D02*
Y50787D01*
X21260Y2756D02*
X22047D01*
X21654Y2362D02*
Y3150D01*
X25984Y43701D02*
X26772D01*
X26378Y43307D02*
Y44094D01*
X33661Y5906D02*
X34449D01*
X34055Y5512D02*
Y6299D01*
X32283Y2756D02*
X33071D01*
X32677Y2362D02*
Y3150D01*
X33858Y10236D02*
X34646D01*
X34252Y9843D02*
Y10630D01*
Y16142D02*
X35039D01*
X34646Y15748D02*
Y16535D01*
X18898Y50394D02*
X19685D01*
X19291Y50000D02*
Y50787D01*
X21116Y25314D02*
X21903D01*
X21510Y24920D02*
Y25708D01*
X22047Y20472D02*
X22835D01*
X22441Y20079D02*
Y20866D01*
X19291Y23622D02*
X20079D01*
X19685Y23228D02*
Y24016D01*
X7087Y13780D02*
X7874D01*
X7480Y13386D02*
Y14173D01*
X7874Y16339D02*
X8661D01*
X8268Y15945D02*
Y16732D01*
X7087Y23622D02*
X7874D01*
X7480Y23228D02*
Y24016D01*
X7874Y19685D02*
X8661D01*
X8268Y19291D02*
Y20079D01*
X1181Y27559D02*
X1969D01*
X1575Y27165D02*
Y27953D01*
M02*
