G04*
G04 #@! TF.GenerationSoftware,Altium Limited,CircuitStudio,1.5.1 (13)*
G04*
G04 Layer_Physical_Order=3*
G04 Layer_Color=65535*
%FSLAX25Y25*%
%MOIN*%
G70*
G01*
G75*
%ADD25C,0.00591*%
%ADD28C,0.01000*%
%ADD29C,0.01969*%
G36*
X41546Y57480D02*
Y333D01*
X41193Y-21D01*
X87D01*
X-77Y47D01*
X-156Y33934D01*
X343Y34150D01*
X689Y34007D01*
X7825D01*
Y30906D01*
X8013Y30454D01*
X8111Y30355D01*
X8563Y30168D01*
X16339D01*
X16791Y30355D01*
X16978Y30807D01*
Y46457D01*
X16791Y46909D01*
X16651Y46966D01*
X16594Y47106D01*
X16142Y47293D01*
X8071D01*
X7619Y47106D01*
X7432Y46654D01*
Y43159D01*
X689D01*
X323Y43007D01*
X-178Y43210D01*
X-214Y58701D01*
X139Y59055D01*
X41537Y59055D01*
X41546Y57480D01*
D02*
G37*
%LPC*%
G36*
X23228Y18334D02*
X22691Y18227D01*
X22235Y17923D01*
X21930Y17467D01*
X21823Y16929D01*
X21930Y16391D01*
X22235Y15936D01*
X22691Y15631D01*
X23228Y15524D01*
X23766Y15631D01*
X24222Y15936D01*
X24526Y16391D01*
X24633Y16929D01*
X24526Y17467D01*
X24222Y17923D01*
X23766Y18227D01*
X23228Y18334D01*
D02*
G37*
G36*
X7480Y25027D02*
X6943Y24920D01*
X6487Y24615D01*
X6182Y24160D01*
X6075Y23622D01*
X6182Y23084D01*
X6487Y22629D01*
X6943Y22324D01*
X7480Y22217D01*
X8018Y22324D01*
X8474Y22629D01*
X8778Y23084D01*
X8885Y23622D01*
X8778Y24160D01*
X8474Y24615D01*
X8018Y24920D01*
X7480Y25027D01*
D02*
G37*
G36*
X26301Y28320D02*
X20414D01*
X20145Y28266D01*
X19917Y28114D01*
X16826Y25023D01*
X16674Y24795D01*
X16620Y24526D01*
Y24023D01*
X16329Y23828D01*
X16025Y23372D01*
X15918Y22835D01*
X16025Y22297D01*
X16329Y21841D01*
X16785Y21537D01*
X17323Y21430D01*
X17861Y21537D01*
X18316Y21841D01*
X18621Y22297D01*
X18728Y22835D01*
X18621Y23372D01*
X18316Y23828D01*
X18291Y23845D01*
X18241Y24451D01*
X19717Y25927D01*
X20177Y25680D01*
X20105Y25314D01*
X20212Y24776D01*
X20516Y24320D01*
X20972Y24016D01*
X21510Y23909D01*
X22047Y24016D01*
X22503Y24320D01*
X22808Y24776D01*
X22915Y25314D01*
X22808Y25851D01*
X22503Y26307D01*
X22342Y26415D01*
X22494Y26915D01*
X26010D01*
X34924Y18001D01*
X34678Y17540D01*
X34646Y17547D01*
X34108Y17440D01*
X33652Y17135D01*
X33348Y16679D01*
X33241Y16142D01*
X33348Y15604D01*
X33652Y15148D01*
X34108Y14844D01*
X34646Y14737D01*
X35183Y14844D01*
X35639Y15148D01*
X35944Y15604D01*
X35986Y15818D01*
X36538Y16059D01*
X36699Y15957D01*
Y10133D01*
X35924Y9358D01*
X35536Y9677D01*
X35550Y9699D01*
X35657Y10236D01*
X35550Y10774D01*
X35245Y11230D01*
X34954Y11424D01*
Y12603D01*
X34901Y12871D01*
X34749Y13099D01*
X26879Y20969D01*
X26651Y21121D01*
X26382Y21175D01*
X23629D01*
X23434Y21466D01*
X22979Y21770D01*
X22441Y21877D01*
X21903Y21770D01*
X21448Y21466D01*
X21143Y21010D01*
X21036Y20472D01*
X21143Y19935D01*
X21448Y19479D01*
X21903Y19174D01*
X22441Y19068D01*
X22979Y19174D01*
X23434Y19479D01*
X23629Y19770D01*
X26091D01*
X33549Y12312D01*
Y11424D01*
X33259Y11230D01*
X32954Y10774D01*
X32847Y10236D01*
X32858Y10181D01*
X32397Y9935D01*
X30997Y11335D01*
X31219Y11667D01*
X31326Y12205D01*
X31219Y12742D01*
X30915Y13198D01*
X30459Y13503D01*
X29921Y13610D01*
X29384Y13503D01*
X28928Y13198D01*
X28623Y12742D01*
X28516Y12205D01*
X28623Y11667D01*
X28928Y11211D01*
X29384Y10907D01*
X29452Y10893D01*
X32574Y7771D01*
X32802Y7619D01*
X33071Y7565D01*
X33159D01*
X33310Y7065D01*
X33062Y6899D01*
X32757Y6443D01*
X32650Y5906D01*
X32757Y5368D01*
X33062Y4912D01*
X33517Y4608D01*
X34055Y4501D01*
X34593Y4608D01*
X35048Y4912D01*
X35353Y5368D01*
X35460Y5906D01*
X35353Y6443D01*
X35048Y6899D01*
X34800Y7065D01*
X34951Y7565D01*
X35827D01*
X36096Y7619D01*
X36323Y7771D01*
X37898Y9346D01*
X38051Y9574D01*
X38104Y9843D01*
Y16517D01*
X38051Y16786D01*
X37898Y17014D01*
X26798Y28114D01*
X26570Y28266D01*
X26301Y28320D01*
D02*
G37*
G36*
X8268Y17743D02*
X7730Y17637D01*
X7274Y17332D01*
X6970Y16876D01*
X6863Y16339D01*
X6970Y15801D01*
X7092Y15617D01*
X6944Y15083D01*
X6911Y15057D01*
X6487Y14773D01*
X6182Y14317D01*
X6075Y13780D01*
X5656Y13503D01*
X5118Y13610D01*
X4580Y13503D01*
X4125Y13198D01*
X3820Y12742D01*
X3713Y12205D01*
X3748Y12032D01*
X3322Y11607D01*
X3150Y11641D01*
X2612Y11534D01*
X2156Y11230D01*
X1852Y10774D01*
X1745Y10236D01*
X1852Y9699D01*
X2156Y9243D01*
X2612Y8938D01*
X3150Y8831D01*
X3687Y8938D01*
X4143Y9243D01*
X4448Y9699D01*
X4555Y10236D01*
X4520Y10409D01*
X4945Y10834D01*
X5118Y10800D01*
X5656Y10907D01*
X6112Y11211D01*
X6416Y11667D01*
X6523Y12205D01*
X6943Y12482D01*
X7480Y12375D01*
X8018Y12482D01*
X8474Y12786D01*
X8778Y13242D01*
X8885Y13780D01*
X8778Y14317D01*
X8655Y14501D01*
X8804Y15035D01*
X8837Y15061D01*
X9261Y15345D01*
X9566Y15801D01*
X9673Y16339D01*
X9566Y16876D01*
X9261Y17332D01*
X8805Y17637D01*
X8268Y17743D01*
D02*
G37*
G36*
X32677Y4161D02*
X32140Y4054D01*
X31684Y3749D01*
X31379Y3294D01*
X31272Y2756D01*
X31379Y2218D01*
X31684Y1763D01*
X32140Y1458D01*
X32677Y1351D01*
X33215Y1458D01*
X33671Y1763D01*
X33975Y2218D01*
X34082Y2756D01*
X33975Y3294D01*
X33671Y3749D01*
X33215Y4054D01*
X32677Y4161D01*
D02*
G37*
G36*
X18110Y3373D02*
X17573Y3266D01*
X17117Y2962D01*
X16812Y2506D01*
X16705Y1969D01*
X16812Y1431D01*
X17117Y975D01*
X17573Y671D01*
X18110Y564D01*
X18648Y671D01*
X19104Y975D01*
X19408Y1431D01*
X19515Y1969D01*
X19408Y2506D01*
X19104Y2962D01*
X18648Y3266D01*
X18110Y3373D01*
D02*
G37*
G36*
X24803Y13216D02*
X24265Y13109D01*
X23810Y12804D01*
X23615Y12514D01*
X16535D01*
X16267Y12460D01*
X16039Y12308D01*
X12839Y9108D01*
X12742Y9172D01*
X12205Y9279D01*
X11667Y9172D01*
X11211Y8867D01*
X10907Y8412D01*
X10800Y7874D01*
X10907Y7336D01*
X11211Y6881D01*
X11667Y6576D01*
X12205Y6469D01*
X12742Y6576D01*
X13198Y6881D01*
X13503Y7336D01*
X13597Y7808D01*
X13854Y7979D01*
X14023Y7943D01*
X14365Y7762D01*
X14450Y7336D01*
X14755Y6881D01*
X15210Y6576D01*
X15748Y6469D01*
X16286Y6576D01*
X16741Y6881D01*
X17046Y7336D01*
X17068Y7447D01*
X17578D01*
X17600Y7336D01*
X17904Y6881D01*
X18360Y6576D01*
X18898Y6469D01*
X19435Y6576D01*
X19891Y6881D01*
X19975Y7006D01*
X20576D01*
X20660Y6881D01*
X21116Y6576D01*
X21654Y6469D01*
X22191Y6576D01*
X22647Y6881D01*
X22952Y7336D01*
X23058Y7874D01*
X22952Y8412D01*
X22647Y8867D01*
X22191Y9172D01*
X21654Y9279D01*
X21116Y9172D01*
X20660Y8867D01*
X20576Y8742D01*
X19975D01*
X19891Y8867D01*
X19435Y9172D01*
X18898Y9279D01*
X18360Y9172D01*
X17904Y8867D01*
X17600Y8412D01*
X17578Y8302D01*
X17068D01*
X17046Y8412D01*
X16741Y8867D01*
X16286Y9172D01*
X15748Y9279D01*
X15693Y9268D01*
X15447Y9729D01*
X16826Y11108D01*
X23615D01*
X23810Y10818D01*
X24265Y10513D01*
X24803Y10406D01*
X25341Y10513D01*
X25797Y10818D01*
X26101Y11273D01*
X26208Y11811D01*
X26101Y12349D01*
X25797Y12804D01*
X25341Y13109D01*
X24803Y13216D01*
D02*
G37*
G36*
X27563Y11243D02*
X27025Y11136D01*
X26570Y10832D01*
X26265Y10376D01*
X26158Y9838D01*
X26265Y9301D01*
X26570Y8845D01*
X27025Y8540D01*
X27563Y8433D01*
X28101Y8540D01*
X28556Y8845D01*
X28861Y9301D01*
X28968Y9838D01*
X28861Y10376D01*
X28556Y10832D01*
X28101Y11136D01*
X27563Y11243D01*
D02*
G37*
G36*
X13386Y25814D02*
X12848Y25707D01*
X12392Y25403D01*
X12088Y24947D01*
X11981Y24409D01*
X12088Y23872D01*
X12392Y23416D01*
X12848Y23111D01*
X13386Y23004D01*
X13923Y23111D01*
X14379Y23416D01*
X14684Y23872D01*
X14791Y24409D01*
X14684Y24947D01*
X14379Y25403D01*
X13923Y25707D01*
X13386Y25814D01*
D02*
G37*
G36*
X19291Y51799D02*
X18754Y51692D01*
X18298Y51387D01*
X17993Y50931D01*
X17886Y50394D01*
X17993Y49856D01*
X18298Y49400D01*
X18754Y49096D01*
X19291Y48989D01*
X19829Y49096D01*
X20285Y49400D01*
X20589Y49856D01*
X20696Y50394D01*
X20589Y50931D01*
X20285Y51387D01*
X19829Y51692D01*
X19291Y51799D01*
D02*
G37*
G36*
X36614Y51405D02*
X36077Y51298D01*
X35621Y50994D01*
X35316Y50538D01*
X35209Y50000D01*
X35316Y49462D01*
X35621Y49007D01*
X36077Y48702D01*
X36614Y48595D01*
X37152Y48702D01*
X37608Y49007D01*
X37912Y49462D01*
X38019Y50000D01*
X37912Y50538D01*
X37608Y50994D01*
X37152Y51298D01*
X36614Y51405D01*
D02*
G37*
G36*
X8465Y56917D02*
X7927Y56810D01*
X7471Y56505D01*
X7167Y56050D01*
X7060Y55512D01*
X7167Y54974D01*
X7471Y54518D01*
X7927Y54214D01*
X8465Y54107D01*
X9002Y54214D01*
X9458Y54518D01*
X9763Y54974D01*
X9870Y55512D01*
X9763Y56050D01*
X9458Y56505D01*
X9002Y56810D01*
X8465Y56917D01*
D02*
G37*
G36*
X8661Y52980D02*
X8124Y52873D01*
X7668Y52568D01*
X7363Y52113D01*
X7256Y51575D01*
X7363Y51037D01*
X7668Y50581D01*
X8124Y50277D01*
X8661Y50170D01*
X9199Y50277D01*
X9655Y50581D01*
X9959Y51037D01*
X10066Y51575D01*
X9959Y52113D01*
X9655Y52568D01*
X9199Y52873D01*
X8661Y52980D01*
D02*
G37*
G36*
X37795Y32507D02*
X37258Y32400D01*
X36802Y32096D01*
X36497Y31640D01*
X36390Y31102D01*
X36497Y30565D01*
X36802Y30109D01*
X36927Y30025D01*
Y29424D01*
X36802Y29340D01*
X36497Y28884D01*
X36390Y28346D01*
X36497Y27809D01*
X36802Y27353D01*
X37258Y27048D01*
X37795Y26941D01*
X38333Y27048D01*
X38789Y27353D01*
X39093Y27809D01*
X39200Y28346D01*
X39093Y28884D01*
X38789Y29340D01*
X38663Y29424D01*
Y30025D01*
X38789Y30109D01*
X39093Y30565D01*
X39200Y31102D01*
X39093Y31640D01*
X38789Y32096D01*
X38333Y32400D01*
X37795Y32507D01*
D02*
G37*
G36*
X35349Y25874D02*
X34811Y25767D01*
X34356Y25462D01*
X34051Y25006D01*
X33944Y24469D01*
X34051Y23931D01*
X34356Y23475D01*
X34811Y23171D01*
X35349Y23064D01*
X35887Y23171D01*
X36297Y23445D01*
X36802Y23416D01*
X37258Y23111D01*
X37795Y23005D01*
X38333Y23111D01*
X38789Y23416D01*
X39093Y23872D01*
X39200Y24409D01*
X39093Y24947D01*
X38789Y25403D01*
X38333Y25708D01*
X37795Y25814D01*
X37258Y25708D01*
X36847Y25433D01*
X36342Y25462D01*
X35887Y25767D01*
X35349Y25874D01*
D02*
G37*
G36*
X4331Y51011D02*
X3793Y50904D01*
X3337Y50600D01*
X3033Y50144D01*
X2926Y49606D01*
X3033Y49069D01*
X3337Y48613D01*
X3793Y48308D01*
X4331Y48201D01*
X4868Y48308D01*
X5324Y48613D01*
X5629Y49069D01*
X5736Y49606D01*
X5629Y50144D01*
X5324Y50600D01*
X4868Y50904D01*
X4331Y51011D01*
D02*
G37*
G36*
X36614Y46681D02*
X36077Y46574D01*
X35621Y46269D01*
X35245D01*
X34790Y46574D01*
X34252Y46681D01*
X33714Y46574D01*
X33259Y46269D01*
X32954Y45813D01*
X32847Y45276D01*
X32954Y44738D01*
X33259Y44282D01*
X33714Y43978D01*
X34252Y43871D01*
X34790Y43978D01*
X35245Y44282D01*
X35621D01*
X36077Y43978D01*
X36614Y43871D01*
X37152Y43978D01*
X37608Y44282D01*
X37912Y44738D01*
X38019Y45276D01*
X37912Y45813D01*
X37608Y46269D01*
X37152Y46574D01*
X36614Y46681D01*
D02*
G37*
%LPD*%
D25*
X12205Y7874D02*
X12598D01*
X16535Y11811D01*
X29921Y11417D02*
Y12205D01*
Y11417D02*
X33071Y8268D01*
X16535Y11811D02*
X24803D01*
X34252Y10236D02*
Y12603D01*
X26382Y20472D02*
X34252Y12603D01*
X22441Y20472D02*
X26382D01*
X17323Y23622D02*
Y24526D01*
X20414Y27617D01*
X26301D01*
X37402Y16517D01*
Y9843D02*
Y16517D01*
X35827Y8268D02*
X37402Y9843D01*
X33071Y8268D02*
X35827D01*
X17323Y22835D02*
Y23622D01*
D28*
X-57480Y65354D02*
Y71352D01*
X-55481Y69353D01*
X-53482Y71352D01*
Y65354D01*
X-51482D02*
X-49483D01*
X-50483D01*
Y69353D01*
X-51482D01*
X-42485Y71352D02*
Y65354D01*
X-45484D01*
X-46484Y66354D01*
Y68353D01*
X-45484Y69353D01*
X-42485D01*
X-36487Y71352D02*
Y65354D01*
X-39486D01*
X-40486Y66354D01*
Y68353D01*
X-39486Y69353D01*
X-36487D01*
X-34488Y65354D02*
X-32488D01*
X-33488D01*
Y71352D01*
X-34488D01*
X-26490Y65354D02*
X-28490D01*
X-29489Y66354D01*
Y68353D01*
X-28490Y69353D01*
X-26490D01*
X-25491Y68353D01*
Y67354D01*
X-29489D01*
X-17493Y71352D02*
Y65354D01*
X-13495D01*
X-10496Y69353D02*
X-8496D01*
X-7497Y68353D01*
Y65354D01*
X-10496D01*
X-11495Y66354D01*
X-10496Y67354D01*
X-7497D01*
X-5497Y69353D02*
Y66354D01*
X-4497Y65354D01*
X-1498D01*
Y64355D01*
X-2498Y63355D01*
X-3498D01*
X-1498Y65354D02*
Y69353D01*
X3500Y65354D02*
X1501D01*
X501Y66354D01*
Y68353D01*
X1501Y69353D01*
X3500D01*
X4500Y68353D01*
Y67354D01*
X501D01*
X6499Y69353D02*
Y65354D01*
Y67354D01*
X7499Y68353D01*
X8498Y69353D01*
X9498D01*
X22494Y65354D02*
X18495D01*
X22494Y69353D01*
Y70353D01*
X21494Y71352D01*
X19495D01*
X18495Y70353D01*
X30491Y68353D02*
X34490D01*
X42487Y69353D02*
Y65354D01*
Y67354D01*
X43487Y68353D01*
X44487Y69353D01*
X45486D01*
X51484Y65354D02*
X49485D01*
X48485Y66354D01*
Y68353D01*
X49485Y69353D01*
X51484D01*
X52484Y68353D01*
Y67354D01*
X48485D01*
X55483Y69353D02*
X57482D01*
X58482Y68353D01*
Y65354D01*
X55483D01*
X54483Y66354D01*
X55483Y67354D01*
X58482D01*
X64480Y71352D02*
Y65354D01*
X61481D01*
X60482Y66354D01*
Y68353D01*
X61481Y69353D01*
X64480D01*
X67479D02*
X69479D01*
X70478Y68353D01*
Y65354D01*
X67479D01*
X66480Y66354D01*
X67479Y67354D01*
X70478D01*
X72478Y71352D02*
Y65354D01*
X75477D01*
X76476Y66354D01*
Y67354D01*
Y68353D01*
X75477Y69353D01*
X72478D01*
X78476Y65354D02*
X80475D01*
X79475D01*
Y71352D01*
X78476D01*
X86473Y65354D02*
X84474D01*
X83474Y66354D01*
Y68353D01*
X84474Y69353D01*
X86473D01*
X87473Y68353D01*
Y67354D01*
X83474D01*
X96470Y65354D02*
Y70353D01*
Y68353D01*
X95470D01*
X97470D01*
X96470D01*
Y70353D01*
X97470Y71352D01*
X100469Y69353D02*
Y65354D01*
Y67354D01*
X101468Y68353D01*
X102468Y69353D01*
X103468D01*
X107466Y65354D02*
X109466D01*
X110465Y66354D01*
Y68353D01*
X109466Y69353D01*
X107466D01*
X106467Y68353D01*
Y66354D01*
X107466Y65354D01*
X112465D02*
Y69353D01*
X113464D01*
X114464Y68353D01*
Y65354D01*
Y68353D01*
X115464Y69353D01*
X116463Y68353D01*
Y65354D01*
X125461Y70353D02*
Y69353D01*
X124461D01*
X126460D01*
X125461D01*
Y66354D01*
X126460Y65354D01*
X130459D02*
X132458D01*
X133458Y66354D01*
Y68353D01*
X132458Y69353D01*
X130459D01*
X129459Y68353D01*
Y66354D01*
X130459Y65354D01*
X135457Y63355D02*
Y69353D01*
X138456D01*
X139456Y68353D01*
Y66354D01*
X138456Y65354D01*
X135457D01*
D29*
X12205Y7874D02*
D03*
X15748D02*
D03*
X29921Y12205D02*
D03*
X35349Y24469D02*
D03*
X27563Y9838D02*
D03*
X24803Y11811D02*
D03*
X37795Y24409D02*
D03*
X36614Y50000D02*
D03*
X8661Y51575D02*
D03*
X13386Y24409D02*
D03*
X17323Y22835D02*
D03*
X18110Y30709D02*
D03*
Y34646D02*
D03*
Y38189D02*
D03*
Y42126D02*
D03*
Y45276D02*
D03*
X14961Y48425D02*
D03*
X11811D02*
D03*
X9055D02*
D03*
X6299Y47244D02*
D03*
X37795Y31102D02*
D03*
Y28346D02*
D03*
X34252Y45276D02*
D03*
X36614D02*
D03*
X8465Y55512D02*
D03*
X18110Y1969D02*
D03*
X3150Y10236D02*
D03*
X5118Y12205D02*
D03*
X18898Y7874D02*
D03*
X21654D02*
D03*
X23228Y16929D02*
D03*
X4331Y49606D02*
D03*
X28740Y50394D02*
D03*
X21654Y2756D02*
D03*
X26378Y43701D02*
D03*
X34055Y5906D02*
D03*
X32677Y2756D02*
D03*
X34252Y10236D02*
D03*
X34646Y16142D02*
D03*
X19291Y50394D02*
D03*
X21510Y25314D02*
D03*
X22441Y20472D02*
D03*
X19685Y23622D02*
D03*
X7480Y13780D02*
D03*
X8268Y16339D02*
D03*
X7480Y23622D02*
D03*
X8268Y19685D02*
D03*
X1575Y27559D02*
D03*
M02*
