G04*
G04 #@! TF.GenerationSoftware,Altium Limited,CircuitStudio,1.5.1 (13)*
G04*
G04 Layer_Color=20142*
%FSLAX25Y25*%
%MOIN*%
G70*
G01*
G75*
%ADD30C,0.00000*%
%ADD31C,0.01863*%
%ADD32R,0.07099X0.03950*%
%ADD33R,0.03359X0.03950*%
%ADD34C,0.01666*%
%ADD35R,0.01883X0.01784*%
%ADD36R,0.01784X0.01883*%
%ADD37R,0.02572X0.02769*%
G04:AMPARAMS|DCode=38|XSize=47.37mil|YSize=59.18mil|CornerRadius=13.84mil|HoleSize=0mil|Usage=FLASHONLY|Rotation=90.000|XOffset=0mil|YOffset=0mil|HoleType=Round|Shape=RoundedRectangle|*
%AMROUNDEDRECTD38*
21,1,0.04737,0.03150,0,0,90.0*
21,1,0.01969,0.05918,0,0,90.0*
1,1,0.02769,0.01575,0.00984*
1,1,0.02769,0.01575,-0.00984*
1,1,0.02769,-0.01575,-0.00984*
1,1,0.02769,-0.01575,0.00984*
%
%ADD38ROUNDEDRECTD38*%
%ADD39R,0.03517X0.03635*%
%ADD40R,0.02847X0.02847*%
%ADD41R,0.02178X0.02769*%
%ADD42C,0.01587*%
%ADD43R,0.06706X0.08674*%
%ADD44R,0.02847X0.02847*%
%ADD45R,0.02769X0.02572*%
%ADD46C,0.02769*%
D30*
X24744Y38189D02*
G03*
X24744Y38189I-728J0D01*
G01*
X26713D02*
G03*
X26713Y38189I-728J0D01*
G01*
X28681D02*
G03*
X28681Y38189I-728J0D01*
G01*
X30650D02*
G03*
X30650Y38189I-728J0D01*
G01*
X32618D02*
G03*
X32618Y38189I-728J0D01*
G01*
X34587D02*
G03*
X34587Y38189I-728J0D01*
G01*
X36555D02*
G03*
X36555Y38189I-728J0D01*
G01*
X38524D02*
G03*
X38524Y38189I-728J0D01*
G01*
X24744Y36220D02*
G03*
X24744Y36220I-728J0D01*
G01*
Y34252D02*
G03*
X24744Y34252I-728J0D01*
G01*
Y32283D02*
G03*
X24744Y32283I-728J0D01*
G01*
Y30315D02*
G03*
X24744Y30315I-728J0D01*
G01*
Y28346D02*
G03*
X24744Y28346I-728J0D01*
G01*
Y26378D02*
G03*
X24744Y26378I-728J0D01*
G01*
Y24409D02*
G03*
X24744Y24409I-728J0D01*
G01*
Y22441D02*
G03*
X24744Y22441I-728J0D01*
G01*
X26713D02*
G03*
X26713Y22441I-728J0D01*
G01*
X28681D02*
G03*
X28681Y22441I-728J0D01*
G01*
X30650D02*
G03*
X30650Y22441I-728J0D01*
G01*
X32618D02*
G03*
X32618Y22441I-728J0D01*
G01*
X34587D02*
G03*
X34587Y22441I-728J0D01*
G01*
X36555D02*
G03*
X36555Y22441I-728J0D01*
G01*
X38524D02*
G03*
X38524Y22441I-728J0D01*
G01*
X40492D02*
G03*
X40492Y22441I-728J0D01*
G01*
Y24409D02*
G03*
X40492Y24409I-728J0D01*
G01*
Y26378D02*
G03*
X40492Y26378I-728J0D01*
G01*
Y28346D02*
G03*
X40492Y28346I-728J0D01*
G01*
Y30315D02*
G03*
X40492Y30315I-728J0D01*
G01*
Y32283D02*
G03*
X40492Y32283I-728J0D01*
G01*
Y34252D02*
G03*
X40492Y34252I-728J0D01*
G01*
Y36220D02*
G03*
X40492Y36220I-728J0D01*
G01*
Y38189D02*
G03*
X40492Y38189I-728J0D01*
G01*
X28681Y26378D02*
G03*
X28681Y26378I-728J0D01*
G01*
X30650D02*
G03*
X30650Y26378I-728J0D01*
G01*
X32618D02*
G03*
X32618Y26378I-728J0D01*
G01*
X34587D02*
G03*
X34587Y26378I-728J0D01*
G01*
X36555D02*
G03*
X36555Y26378I-728J0D01*
G01*
X28681Y28346D02*
G03*
X28681Y28346I-728J0D01*
G01*
X30650D02*
G03*
X30650Y28346I-728J0D01*
G01*
X34587D02*
G03*
X34587Y28346I-728J0D01*
G01*
X36555D02*
G03*
X36555Y28346I-728J0D01*
G01*
X28681Y30315D02*
G03*
X28681Y30315I-728J0D01*
G01*
X36555D02*
G03*
X36555Y30315I-728J0D01*
G01*
X28681Y32283D02*
G03*
X28681Y32283I-728J0D01*
G01*
X30650D02*
G03*
X30650Y32283I-728J0D01*
G01*
X34587D02*
G03*
X34587Y32283I-728J0D01*
G01*
X36555D02*
G03*
X36555Y32283I-728J0D01*
G01*
X28681Y34252D02*
G03*
X28681Y34252I-728J0D01*
G01*
X32618D02*
G03*
X32618Y34252I-728J0D01*
G01*
X34587D02*
G03*
X34587Y34252I-728J0D01*
G01*
X36555D02*
G03*
X36555Y34252I-728J0D01*
G01*
D31*
X24016Y38189D02*
D03*
Y36220D02*
D03*
Y34252D02*
D03*
Y32283D02*
D03*
Y22441D02*
D03*
Y30315D02*
D03*
Y28346D02*
D03*
Y26378D02*
D03*
Y24409D02*
D03*
X25984Y22441D02*
D03*
X27953D02*
D03*
X29921D02*
D03*
X31890D02*
D03*
X33858D02*
D03*
X35827D02*
D03*
X37795D02*
D03*
X39764D02*
D03*
Y24409D02*
D03*
Y26378D02*
D03*
Y28346D02*
D03*
Y30315D02*
D03*
Y32283D02*
D03*
Y34252D02*
D03*
Y36220D02*
D03*
Y38189D02*
D03*
X37795D02*
D03*
X35827D02*
D03*
X33858D02*
D03*
X31890D02*
D03*
X29921D02*
D03*
X27953D02*
D03*
X25984D02*
D03*
X27953Y34252D02*
D03*
Y32283D02*
D03*
Y30315D02*
D03*
Y28346D02*
D03*
Y26378D02*
D03*
X29921D02*
D03*
X31890D02*
D03*
X29921Y28346D02*
D03*
Y32283D02*
D03*
X33858Y26378D02*
D03*
Y28346D02*
D03*
X35827Y26378D02*
D03*
Y28346D02*
D03*
Y30315D02*
D03*
Y32283D02*
D03*
Y34252D02*
D03*
X33858D02*
D03*
Y32283D02*
D03*
X31890Y34252D02*
D03*
D32*
X4331Y44882D02*
D03*
D33*
X2461Y32283D02*
D03*
X6201D02*
D03*
D34*
X20079Y11024D02*
D03*
X18504D02*
D03*
X16929D02*
D03*
X15354D02*
D03*
X13779D02*
D03*
X12205D02*
D03*
X10630D02*
D03*
X20079Y12598D02*
D03*
X18504D02*
D03*
X16929D02*
D03*
X15354D02*
D03*
X13779D02*
D03*
X12205D02*
D03*
X10630D02*
D03*
X20079Y14173D02*
D03*
X18504D02*
D03*
X16929D02*
D03*
X15354D02*
D03*
X13779D02*
D03*
X12205D02*
D03*
X10630D02*
D03*
X20079Y15748D02*
D03*
X18504D02*
D03*
X16929D02*
D03*
X15354D02*
D03*
X13779D02*
D03*
X12205D02*
D03*
X10630D02*
D03*
X20079Y17323D02*
D03*
X18504D02*
D03*
X16929D02*
D03*
X15354D02*
D03*
X13779D02*
D03*
X12205D02*
D03*
X10630D02*
D03*
X20079Y18898D02*
D03*
X18504D02*
D03*
X16929D02*
D03*
X15354D02*
D03*
X13779D02*
D03*
X12205D02*
D03*
X10630D02*
D03*
X20079Y20472D02*
D03*
X18504D02*
D03*
X16929D02*
D03*
X15354D02*
D03*
X13779D02*
D03*
X12205D02*
D03*
X10630D02*
D03*
D35*
X38829Y47441D02*
D03*
Y49409D02*
D03*
Y51378D02*
D03*
Y53346D02*
D03*
X32825D02*
D03*
Y51378D02*
D03*
Y49409D02*
D03*
Y47441D02*
D03*
D36*
X36811Y53396D02*
D03*
X34843D02*
D03*
Y47392D02*
D03*
X36811D02*
D03*
D37*
X30315Y15551D02*
D03*
Y18307D02*
D03*
D38*
X38189Y12992D02*
D03*
X2756Y22835D02*
D03*
X2756Y16728D02*
D03*
X38189Y2756D02*
D03*
Y7874D02*
D03*
Y18110D02*
D03*
D39*
X9075Y27559D02*
D03*
X5098D02*
D03*
X14547D02*
D03*
X18524D02*
D03*
D40*
X39764Y42520D02*
D03*
X36614D02*
D03*
X11811Y5118D02*
D03*
X8661D02*
D03*
X14567Y52756D02*
D03*
X17717D02*
D03*
X30315Y42520D02*
D03*
X33465D02*
D03*
D41*
X29035Y47638D02*
D03*
X26476D02*
D03*
X23917D02*
D03*
X21358D02*
D03*
X29035Y53937D02*
D03*
X26476D02*
D03*
X23917D02*
D03*
X21358D02*
D03*
D42*
X8760Y2264D02*
D03*
X10138D02*
D03*
X8760Y886D02*
D03*
X10138D02*
D03*
D43*
X27165Y4331D02*
D03*
X3543D02*
D03*
X27165D02*
D03*
D44*
X14961Y5118D02*
D03*
Y1969D02*
D03*
X26772Y15354D02*
D03*
Y18504D02*
D03*
D45*
X5512Y51968D02*
D03*
X2756D02*
D03*
X5512Y55512D02*
D03*
X2756D02*
D03*
D46*
X12205Y7874D02*
D03*
X15748D02*
D03*
X29921Y12205D02*
D03*
X27563Y9838D02*
D03*
X24803Y11811D02*
D03*
X8661Y51575D02*
D03*
X8465Y55512D02*
D03*
X18110Y1969D02*
D03*
X18898Y7874D02*
D03*
X21654D02*
D03*
X23228Y16929D02*
D03*
X21654Y2756D02*
D03*
X26378Y43701D02*
D03*
X19291Y50394D02*
D03*
M02*
