M48
;Layer_Color=6321
;FILE_FORMAT=2:5
INCH,TZ
;TYPE=PLATED
T1F00S00C0.00787
%
T01
X3150Y10236
X5118Y12205
X7480Y13780
X8268Y16339
X12205Y7874
X15748
X18898Y7874
X21654
Y2756
X18110Y1969
X32677Y2756
X34055Y5906
X34252Y10236
X29921Y12205
X27563Y9838
X24803Y11811
X23228Y16929
X34646Y16142
X35349Y24469
X21510Y25314
X19685Y23622
X17323Y22835
X13386Y24409
X7480Y23622
X8268Y19685
X1575Y27559
X18110Y30709
Y34646
Y38189
Y42126
Y45276
X19291Y50394
X14961Y48425
X11811
X9055
X8661Y51575
X8465Y55512
X4331Y49606
X6299Y47244
X26378Y43701
X28740Y50394
X36614Y50000
X36614Y45276
X34252
X22441Y20472
X37795Y24409
X37795Y28346
Y31102
M30
